# Blender 4.1.0
# www.blender.org
mtllib 762silencer.mtl
o attachmentModel
v 11.253108 -0.896164 0.000000
v 11.253108 -0.377288 0.000000
v 11.253108 -0.609797 -0.561328
v 11.253108 -0.976698 -0.194427
v 11.253108 -1.171126 0.274962
v 11.253108 -1.171126 0.793839
v 11.253108 -0.609797 0.561329
v 11.253108 -0.976698 0.194428
v 11.253108 -1.365553 0.194428
v 11.253107 -1.732455 0.561329
v 11.253108 -1.446088 0.000000
v 11.253107 -1.964965 0.000000
v 11.253108 -1.365553 -0.194427
v 11.253108 -1.732455 -0.561328
v 11.253108 -1.171126 -0.274962
v 11.253108 -1.171126 -0.793838
v 11.193317 -0.599582 0.571544
v 11.193317 -0.362841 0.000000
v 11.202063 -0.362841 0.000000
v 11.202063 -0.599582 0.571544
v 11.193316 -1.742670 0.571544
v 11.193316 -1.171126 0.808285
v 11.202063 -1.171126 0.808285
v 11.202062 -1.742670 0.571544
v 11.193316 -1.171126 -0.808285
v 11.193316 -1.742670 -0.571544
v 11.202063 -1.742670 -0.571544
v 11.202063 -1.171126 -0.808285
v 11.193316 -1.979411 0.000000
v 11.202062 -1.979411 0.000000
v 11.193317 -0.599582 -0.571544
v 11.202063 -0.599582 -0.571544
v 4.931454 -1.446087 0.000000
v 4.931454 -1.365552 0.194428
v 4.931454 -1.171125 0.274962
v 4.931454 -0.976697 0.194428
v 4.931454 -0.976697 -0.194427
v 4.931454 -1.171125 -0.274962
v 4.931454 -1.365552 -0.194427
v 4.931454 -0.896163 0.000000
v 4.931454 -0.599580 -0.571544
v 4.931454 -0.362839 0.000000
v 4.931453 -1.171124 -0.808285
v 4.931453 -1.742668 -0.571544
v 4.931453 -1.979409 0.000000
v 4.931453 -1.742668 0.571544
v 4.931453 -1.171124 0.808285
v 4.931454 -0.599580 0.571544
v 8.533758 -0.362840 0.000000
v 8.533758 -0.599581 -0.571544
v 11.183832 -0.599582 -0.571544
v 11.183832 -0.362841 0.000000
v 8.533758 -1.742669 -0.571544
v 8.533758 -1.979410 0.000000
v 11.183831 -1.979411 0.000000
v 11.183832 -1.742669 -0.571544
v 8.533758 -1.171125 0.808285
v 8.533758 -0.599581 0.571544
v 11.183832 -0.599582 0.571544
v 11.183832 -1.171125 0.808285
v 8.533758 -1.171125 -0.808285
v 11.183832 -1.171125 -0.808285
v 8.533758 -1.742669 0.571544
v 11.183831 -1.742669 0.571544
v 11.184135 -1.963547 0.000000
v 11.184135 -1.731452 0.560326
v 11.193013 -0.610799 0.560326
v 11.193012 -1.171126 0.792421
v 11.184136 -0.610799 -0.560326
v 11.184135 -1.171125 -0.792421
v 11.193012 -1.963547 0.000000
v 11.193012 -1.731452 -0.560326
v 11.184135 -1.171125 0.792421
v 11.184135 -0.610799 0.560326
v 11.193013 -0.610799 -0.560326
v 11.193013 -0.378705 0.000000
v 11.184135 -1.731452 -0.560326
v 11.184136 -0.378705 0.000000
v 11.193012 -1.171126 -0.792421
v 11.193012 -1.731452 0.560326
v 5.492959 -0.599580 0.571544
v 5.492959 -0.362839 0.000000
v 5.963389 -0.362839 0.000000
v 5.963389 -0.599581 0.571544
v 5.492959 -1.742668 0.571544
v 5.492959 -1.171124 0.808285
v 5.963389 -1.171124 0.808285
v 5.963388 -1.742668 0.571544
v 5.492959 -1.171124 -0.808285
v 5.492959 -1.742668 -0.571544
v 5.963388 -1.742668 -0.571544
v 5.963389 -1.171124 -0.808285
v 5.492959 -1.979409 0.000000
v 5.963388 -1.979410 0.000000
v 5.492959 -0.599580 -0.571544
v 5.963389 -0.599581 -0.571544
v 6.073210 -0.362839 0.000000
v 6.073210 -0.599581 0.571544
v 6.073210 -1.171124 0.808285
v 6.073209 -1.742668 0.571544
v 6.073210 -1.742668 -0.571544
v 6.073210 -1.171124 -0.808285
v 6.073209 -1.979410 0.000000
v 6.073210 -0.599581 -0.571544
v 5.222479 -0.599580 -0.571544
v 5.222479 -0.362839 0.000000
v 5.222478 -1.979409 0.000000
v 5.222478 -1.742668 -0.571544
v 5.222479 -0.599580 0.571544
v 5.222478 -1.171124 0.808285
v 5.222478 -1.171124 -0.808285
v 5.222478 -1.742668 0.571544
v 5.227384 -1.171124 -0.778967
v 5.227384 -1.721937 -0.550813
v 5.488053 -1.171124 -0.778967
v 5.488054 -0.620311 -0.550813
v 5.227384 -1.950091 0.000000
v 5.227384 -1.721937 0.550813
v 5.488054 -0.620311 0.550813
v 5.488053 -1.171124 0.778967
v 5.227384 -0.620311 -0.550813
v 5.488053 -1.950091 0.000000
v 5.488053 -1.721937 -0.550813
v 5.227384 -1.171124 0.778967
v 5.227384 -0.620311 0.550813
v 5.488054 -0.392157 0.000000
v 5.227384 -0.392157 0.000000
v 5.488053 -1.721937 0.550813
vn 1.0000 -0.0000 -0.0000
vn -0.0000 0.9239 0.3827
vn -0.0000 -0.3827 0.9239
vn -0.0000 -0.3828 0.9238
vn -0.0000 -0.3827 -0.9239
vn -0.0000 -0.9239 0.3827
vn -0.0000 0.3827 -0.9239
vn -0.0000 0.3826 0.9239
vn -0.0000 0.3827 0.9239
vn -0.0000 -0.9239 -0.3827
vn -0.0000 0.9239 -0.3827
vn -1.0000 -0.0000 -0.0000
vn 0.2530 0.8938 0.3702
vn 0.2530 0.3702 0.8938
vn 0.2530 -0.3702 0.8938
vn 0.2530 -0.8938 0.3702
vn 0.2530 -0.8938 -0.3702
vn 0.2530 -0.3702 -0.8938
vn 0.2530 0.3702 -0.8938
vn 0.2530 0.8938 -0.3702
vn 0.9998 -0.0190 0.0079
vn 0.9998 -0.0190 0.0078
vn -0.9998 0.0079 0.0192
vn -0.9998 0.0080 0.0192
vn 0.9998 0.0079 -0.0192
vn 0.9998 0.0079 -0.0191
vn -0.9998 -0.0191 -0.0079
vn -0.9998 -0.0192 -0.0079
vn 0.9998 0.0079 0.0191
vn -0.9998 0.0192 -0.0079
vn -0.9998 0.0195 -0.0078
vn -0.9998 0.0194 -0.0078
vn 0.9998 -0.0189 -0.0079
vn 0.9998 -0.0193 -0.0079
vn -0.9998 0.0192 0.0079
vn -0.9998 0.0191 0.0079
vn -0.0000 0.3826 -0.9239
vn -0.0000 -0.3826 -0.9239
vn -0.0000 -0.3826 0.9239
vn -0.0000 0.9239 0.3826
vn -0.9998 0.0079 -0.0192
vn -0.9998 0.0080 -0.0192
vn 0.9998 -0.0079 -0.0191
vn -0.9998 -0.0191 0.0079
vn -0.9998 -0.0192 0.0079
vn 0.9998 -0.0079 0.0192
vn 0.9998 -0.0079 0.0191
vn -0.9998 -0.0079 -0.0192
vn -0.9998 -0.0080 -0.0192
vn 0.9998 0.0191 0.0079
vn 0.9998 0.0195 0.0078
vn -0.9998 -0.0079 0.0192
vn -0.9998 -0.0080 0.0192
vn 0.9998 0.0192 -0.0079
vn 0.9998 0.0191 -0.0079
vn 0.9840 -0.0682 -0.1647
vn -0.9840 0.0682 -0.1647
vn -0.9840 0.0682 -0.1646
vn 0.9840 -0.1646 0.0682
vn 0.9840 -0.1647 0.0682
vn -0.9840 0.0682 0.1646
vn -0.9840 0.0682 0.1647
vn 0.9840 0.0682 -0.1646
vn 0.9840 0.0682 -0.1647
vn -0.9840 -0.1646 -0.0682
vn -0.9840 -0.1647 -0.0682
vn 0.9840 0.0682 0.1647
vn 0.9840 0.0682 0.1646
vn -0.9840 0.1646 -0.0682
vn -0.9840 -0.1646 0.0682
vn -0.9840 -0.1647 0.0682
vn 0.9840 -0.0682 0.1647
vn -0.9840 -0.0682 -0.1647
vn 0.9840 0.1646 0.0682
vn -0.9840 -0.0682 0.1647
vn 0.9840 0.1646 -0.0682
vn -0.9840 0.1646 0.0682
vn 0.9840 -0.1646 -0.0682
vn 0.9840 -0.1647 -0.0682
vt 0.933160 0.139148
vt 0.993732 0.173864
vt 0.979402 0.136213
vt 0.944147 0.153519
vt 0.907846 0.113631
vt 0.964722 0.108440
vt 0.947999 0.084745
vt 0.920437 0.126006
vt 0.893856 0.101637
vt 0.924776 0.069194
vt 0.880272 0.089583
vt 0.900974 0.055851
vt 0.865772 0.078088
vt 0.881965 0.032870
vt 0.850841 0.066723
vt 0.853382 0.021836
vt 0.835791 0.056548
vt 0.809909 0.009492
vt 0.968883 0.105811
vt 0.983187 0.134447
vt 0.983811 0.134118
vt 0.968302 0.106189
vt 0.927408 0.065232
vt 0.950865 0.081781
vt 0.951337 0.081283
vt 0.927038 0.065806
vt 0.855065 0.017203
vt 0.884458 0.029522
vt 0.884885 0.028970
vt 0.854772 0.017861
vt 0.904058 0.051991
vt 0.903614 0.052522
vt 0.813519 0.004500
vt 0.812982 0.005134
vt 0.562101 0.477238
vt 0.576323 0.488173
vt 0.590869 0.497664
vt 0.605846 0.506758
vt 0.524845 0.442204
vt 0.536581 0.453285
vt 0.548691 0.465630
vt 0.620996 0.514892
vt 0.633203 0.524326
vt 0.535287 0.466864
vt 0.572392 0.498081
vt 0.535287 0.513450
vt 0.605846 0.512449
vt 0.651730 0.540106
vt 0.619471 0.516430
vt 0.587170 0.539519
vt 0.617890 0.516596
vt 0.617890 0.548860
vt 0.536581 0.458168
vt 0.616541 0.529540
vt 0.503267 0.454686
vt 0.496453 0.483328
vt 0.488619 0.428807
vt 0.523509 0.511808
vt 0.552249 0.529438
vt 0.580708 0.545673
vt 0.613190 0.552956
vt 0.590939 0.540106
vt 0.620508 0.514892
vt 0.998005 0.171861
vt 0.998594 0.171484
vt 0.212889 0.728604
vt 0.017205 0.767925
vt 0.209191 0.775061
vt 0.023844 0.723687
vt 0.210868 0.501070
vt 0.025339 0.559695
vt 0.214458 0.546534
vt 0.021051 0.518921
vt 0.216472 0.637095
vt 0.027389 0.682267
vt 0.215281 0.682747
vt 0.028726 0.641462
vt 0.196796 0.407212
vt 0.013653 0.478315
vt 0.205084 0.454388
vt 0.000897 0.434674
vt 0.027562 0.600659
vt 0.216139 0.591782
vt 0.024179 0.559794
vt 0.026397 0.600730
vt 0.969892 0.105155
vt 0.952173 0.080383
vt 0.000002 0.435686
vt 0.012546 0.478710
vt 0.904805 0.051113
vt 0.885667 0.027984
vt 0.027577 0.641469
vt 0.026256 0.682165
vt 0.999418 0.170490
vt 0.984884 0.133867
vt 0.019912 0.519109
vt 0.984645 0.133326
vt 0.985451 0.133493
vt 0.999998 0.170109
vt 0.886119 0.027412
vt 0.905259 0.050581
vt 0.952627 0.079891
vt 0.970480 0.104766
vt 0.815321 0.002984
vt 0.855247 0.016168
vt 0.855618 0.015610
vt 0.814796 0.003600
vt 0.927837 0.064145
vt 0.928188 0.063571
vt 0.856020 0.015544
vt 0.855753 0.016169
vt 0.928565 0.063854
vt 0.928221 0.064391
vt 0.985232 0.133000
vt 0.022712 0.723440
vt 0.016190 0.767085
vt 0.437497 0.688434
vt 0.398123 0.730625
vt 0.431544 0.734896
vt 0.402570 0.683640
vt 0.445905 0.591949
vt 0.405692 0.636367
vt 0.442077 0.641007
vt 0.407361 0.589052
vt 0.437679 0.442383
vt 0.405024 0.494851
vt 0.443875 0.491305
vt 0.400966 0.446662
vt 0.447051 0.541628
vt 0.406651 0.542047
vt 0.429567 0.393976
vt 0.395023 0.397554
vt 0.394222 0.776974
vt 0.425678 0.780339
vt 0.389980 0.729651
vt 0.393871 0.682671
vt 0.396652 0.635643
vt 0.397820 0.588573
vt 0.395447 0.495602
vt 0.391825 0.447481
vt 0.397065 0.542187
vt 0.387009 0.398454
vt 0.386866 0.776757
vt 0.474917 0.745808
vt 0.446277 0.783445
vt 0.465627 0.788510
vt 0.454379 0.739293
vt 0.474420 0.542451
vt 0.499442 0.543091
vt 0.471701 0.488199
vt 0.491298 0.651148
vt 0.461780 0.693565
vt 0.484039 0.700316
vt 0.468101 0.645278
vt 0.469776 0.381553
vt 0.464403 0.437005
vt 0.452032 0.391552
vt 0.472356 0.595064
vt 0.496869 0.598927
vt 0.461976 0.437667
vt 0.469239 0.488610
vt 0.440076 0.442058
vt 0.431715 0.394542
vt 0.471989 0.542429
vt 0.469994 0.594740
vt 0.439729 0.688810
vt 0.444427 0.641303
vt 0.450300 0.392660
vt 0.449491 0.541594
vt 0.446336 0.491077
vt 0.465769 0.644840
vt 0.459554 0.693141
vt 0.427606 0.779726
vt 0.433650 0.735263
vt 0.452247 0.738758
vt 0.444628 0.782241
vt 0.448311 0.592060
vt 0.619471 0.514892
s 0
usemtl DefaultMaterial
f 1/1/1 3/2/1 2/3/1
f 3/2/1 1/1/1 4/4/1
f 5/5/1 7/6/1 6/7/1
f 7/6/1 5/5/1 8/8/1
f 9/9/1 6/7/1 10/10/1
f 6/7/1 9/9/1 5/5/1
f 11/11/1 10/10/1 12/12/1
f 10/10/1 11/11/1 9/9/1
f 13/13/1 12/12/1 14/14/1
f 12/12/1 13/13/1 11/11/1
f 15/15/1 14/14/1 16/16/1
f 14/14/1 15/15/1 13/13/1
f 4/17/1 16/16/1 3/18/1
f 16/16/1 4/17/1 15/15/1
f 17/19/2 19/20/2 18/21/2
f 19/20/2 17/19/2 20/22/2
f 21/23/3 23/24/3 22/25/3
f 23/24/4 21/23/4 24/26/4
f 25/27/5 27/28/5 26/29/5
f 27/28/5 25/27/5 28/30/5
f 8/8/1 2/3/1 7/6/1
f 2/3/1 8/8/1 1/1/1
f 29/31/6 24/26/6 21/23/6
f 24/26/6 29/31/6 30/32/6
f 31/33/7 28/30/7 25/27/7
f 28/30/7 31/33/7 32/34/7
f 22/25/8 20/22/8 17/19/8
f 20/22/9 22/25/9 23/24/9
f 26/29/10 30/32/10 29/31/10
f 30/32/10 26/29/10 27/28/10
f 33/35/11 9/9/11 11/11/11
f 9/9/11 33/35/11 34/36/11
f 35/37/5 8/8/5 5/5/5
f 8/8/5 35/37/5 36/38/5
f 37/39/3 15/15/3 4/17/3
f 15/15/3 37/39/3 38/40/3
f 39/41/2 11/11/2 13/13/2
f 11/11/2 39/41/2 33/35/2
f 34/36/7 5/5/7 9/9/7
f 5/5/7 34/36/7 35/37/7
f 36/38/10 1/1/10 8/8/10
f 1/1/10 36/38/10 40/42/10
f 40/42/6 4/4/6 1/1/6
f 4/4/6 40/42/6 37/43/6
f 38/40/9 13/13/9 15/15/9
f 13/13/9 38/40/9 39/41/9
f 41/44/12 40/45/12 42/46/12
f 40/47/12 41/48/12 37/49/12
f 40/50/1 41/51/1 42/52/1
f 38/53/12 37/54/12 43/55/12
f 44/56/12 38/40/12 43/57/12
f 38/40/12 44/56/12 39/41/12
f 45/58/12 39/41/12 44/56/12
f 39/41/12 45/58/12 33/35/12
f 46/59/12 33/35/12 45/58/12
f 33/35/12 46/59/12 34/36/12
f 47/60/12 34/36/12 46/59/12
f 34/36/12 47/60/12 35/37/12
f 48/61/12 35/37/12 47/60/12
f 35/37/12 48/61/12 36/38/12
f 42/48/12 36/38/12 48/61/12
f 36/38/12 42/62/12 40/63/12
f 19/20/13 7/6/13 2/3/13
f 7/6/13 19/20/13 20/22/13
f 20/22/14 6/7/14 7/6/14
f 6/7/14 20/22/14 23/24/14
f 23/24/15 10/10/15 6/7/15
f 10/10/15 23/24/15 24/26/15
f 24/26/16 12/12/16 10/10/16
f 12/12/16 24/26/16 30/32/16
f 30/32/17 14/14/17 12/12/17
f 14/14/17 30/32/17 27/28/17
f 27/28/18 16/16/18 14/14/18
f 16/16/18 27/28/18 28/30/18
f 28/30/19 3/18/19 16/16/19
f 3/18/19 28/30/19 32/34/19
f 32/64/20 2/3/20 3/2/20
f 2/3/20 32/64/20 19/20/20
f 18/21/11 32/64/11 31/65/11
f 32/64/11 18/21/11 19/20/11
f 49/66/11 51/67/11 50/68/11
f 51/67/11 49/66/11 52/69/11
f 53/70/10 55/71/10 54/72/10
f 55/71/10 53/70/10 56/73/10
f 57/74/9 59/75/9 58/76/9
f 59/75/9 57/74/9 60/77/9
f 50/78/7 62/79/7 61/80/7
f 62/79/7 50/78/7 51/81/7
f 54/72/6 64/82/6 63/83/6
f 64/82/6 54/72/6 55/71/6
f 61/80/5 56/73/5 53/70/5
f 56/73/5 61/80/5 62/79/5
f 63/83/3 60/77/3 57/74/3
f 60/77/3 63/83/3 64/82/3
f 58/76/2 52/69/2 49/66/2
f 52/69/2 58/76/2 59/75/2
f 65/84/21 64/82/21 55/71/21
f 64/82/22 65/84/22 66/85/22
f 67/86/23 22/25/23 17/19/23
f 22/25/24 67/86/24 68/87/24
f 69/88/25 62/79/25 51/81/25
f 62/79/26 69/88/26 70/89/26
f 71/90/27 26/29/27 29/31/27
f 26/29/28 71/90/28 72/91/28
f 73/92/29 59/75/29 60/77/29
f 59/75/29 73/92/29 74/93/29
f 75/94/30 18/21/30 31/65/30
f 18/21/31 75/94/32 76/95/31
f 77/96/33 55/71/33 56/73/33
f 55/71/34 77/96/34 65/84/34
f 76/97/35 17/19/35 18/21/35
f 17/19/36 76/97/36 67/86/36
f 78/98/11 75/94/11 69/99/11
f 75/94/11 78/98/11 76/95/11
f 77/100/10 71/90/10 65/101/10
f 71/90/10 77/100/10 72/91/10
f 73/102/8 67/86/8 74/103/8
f 67/86/9 73/102/9 68/87/9
f 69/104/37 79/105/37 70/106/37
f 79/105/7 69/104/7 75/107/7
f 65/101/6 80/108/6 66/109/6
f 80/108/6 65/101/6 71/90/6
f 70/110/38 72/91/38 77/100/38
f 72/91/5 70/110/5 79/111/5
f 66/112/39 68/87/39 73/102/39
f 68/87/3 66/112/3 80/113/3
f 74/103/2 76/97/2 78/114/2
f 76/97/40 74/103/40 67/86/40
f 79/105/41 31/33/41 25/27/41
f 31/33/42 79/105/42 75/107/42
f 70/89/43 56/73/43 62/79/43
f 56/73/43 70/89/43 77/96/43
f 80/108/44 29/31/44 21/23/44
f 29/31/45 80/108/45 71/90/45
f 66/85/46 60/77/46 64/82/46
f 60/77/47 66/85/47 73/92/47
f 72/91/48 25/27/48 26/29/48
f 25/27/49 72/91/49 79/111/49
f 74/93/50 52/69/50 59/75/50
f 52/69/51 74/93/51 78/115/51
f 68/87/52 21/23/52 22/25/52
f 21/23/53 68/87/53 80/113/53
f 78/115/54 51/67/54 52/69/54
f 51/67/55 78/115/55 69/116/55
f 81/117/2 83/118/2 82/119/2
f 83/118/2 81/117/2 84/120/2
f 85/121/3 87/122/3 86/123/3
f 87/122/3 85/121/3 88/124/3
f 89/125/5 91/126/5 90/127/5
f 91/126/5 89/125/5 92/128/5
f 93/129/6 88/124/6 85/121/6
f 88/124/6 93/129/6 94/130/6
f 95/131/7 92/128/7 89/125/7
f 92/128/7 95/131/7 96/132/7
f 86/123/9 84/120/9 81/117/9
f 84/120/9 86/123/9 87/122/9
f 90/127/10 94/130/10 93/129/10
f 94/130/10 90/127/10 91/126/10
f 82/119/11 96/133/11 95/134/11
f 96/133/11 82/119/11 83/118/11
f 84/120/2 97/135/2 83/118/2
f 97/135/2 84/120/2 98/136/2
f 88/124/3 99/137/3 87/122/3
f 99/137/3 88/124/3 100/138/3
f 92/128/5 101/139/5 91/126/5
f 101/139/5 92/128/5 102/140/5
f 94/130/6 100/138/6 88/124/6
f 100/138/6 94/130/6 103/141/6
f 96/132/7 102/140/7 92/128/7
f 102/140/7 96/132/7 104/142/7
f 87/122/9 98/136/9 84/120/9
f 98/136/9 87/122/9 99/137/9
f 91/126/10 103/141/10 94/130/10
f 103/141/10 91/126/10 101/139/10
f 83/118/11 104/143/11 96/133/11
f 104/143/11 83/118/11 97/135/11
f 98/136/2 49/66/2 97/135/2
f 49/66/2 98/136/2 58/76/2
f 100/138/3 57/74/3 99/137/3
f 57/74/3 100/138/3 63/83/3
f 102/140/5 53/70/5 101/139/5
f 53/70/5 102/140/5 61/80/5
f 103/141/6 63/83/6 100/138/6
f 63/83/6 103/141/6 54/72/6
f 104/142/7 61/80/7 102/140/7
f 61/80/7 104/142/7 50/78/7
f 99/137/9 58/76/9 98/136/9
f 58/76/9 99/137/9 57/74/9
f 101/139/10 54/72/10 103/141/10
f 54/72/10 101/139/10 53/70/10
f 97/135/11 50/68/11 104/143/11
f 50/68/11 97/135/11 49/66/11
f 42/144/11 105/145/11 41/146/11
f 105/145/11 42/144/11 106/147/11
f 44/56/10 107/148/10 45/149/10
f 107/148/10 44/56/10 108/150/10
f 47/151/9 109/152/9 48/153/9
f 109/152/9 47/151/9 110/154/9
f 41/155/7 111/156/7 43/57/7
f 111/156/7 41/155/7 105/157/7
f 45/149/6 112/158/6 46/159/6
f 112/158/6 45/149/6 107/148/6
f 43/57/5 108/150/5 44/56/5
f 108/150/5 43/57/5 111/156/5
f 46/159/3 110/154/3 47/151/3
f 110/154/3 46/159/3 112/158/3
f 48/153/2 106/147/2 42/144/2
f 106/147/2 48/153/2 109/152/2
f 113/160/56 108/150/56 111/156/56
f 108/150/56 113/160/56 114/161/56
f 115/162/57 95/131/57 89/125/57
f 95/131/58 115/162/58 116/163/58
f 117/164/59 112/158/59 107/148/59
f 112/158/60 117/164/60 118/165/60
f 119/166/61 86/123/61 81/117/61
f 86/123/62 119/166/62 120/167/62
f 121/168/63 111/156/63 105/157/63
f 111/156/64 121/168/64 113/160/64
f 122/169/65 90/127/65 93/129/65
f 90/127/66 122/169/66 123/170/66
f 124/171/67 109/152/67 110/154/67
f 109/152/68 124/171/68 125/172/68
f 116/173/69 82/119/69 95/134/69
f 82/119/69 116/173/69 126/174/69
f 127/175/11 116/173/11 121/176/11
f 116/173/11 127/175/11 126/174/11
f 114/161/10 122/169/10 117/164/10
f 122/169/10 114/161/10 123/170/10
f 124/171/9 119/166/9 125/172/9
f 119/166/9 124/171/9 120/167/9
f 121/168/7 115/162/7 113/160/7
f 115/162/7 121/168/7 116/163/7
f 117/164/6 128/177/6 118/165/6
f 128/177/6 117/164/6 122/169/6
f 113/160/5 123/170/5 114/161/5
f 123/170/5 113/160/5 115/162/5
f 118/165/3 120/167/3 124/171/3
f 120/167/3 118/165/3 128/177/3
f 125/172/2 126/174/2 127/175/2
f 126/174/2 125/172/2 119/166/2
f 128/177/70 93/129/70 85/121/70
f 93/129/71 128/177/71 122/169/71
f 118/165/72 110/154/72 112/158/72
f 110/154/72 118/165/72 124/171/72
f 123/170/73 89/125/73 90/127/73
f 89/125/73 123/170/73 115/162/73
f 125/172/74 106/147/74 109/152/74
f 106/147/74 125/172/74 127/175/74
f 120/167/75 85/121/75 86/123/75
f 85/121/75 120/167/75 128/177/75
f 127/175/76 105/145/76 106/147/76
f 105/145/76 127/175/76 121/176/76
f 126/174/77 81/117/77 82/119/77
f 81/117/77 126/174/77 119/166/77
f 114/161/78 107/148/78 108/150/78
f 107/148/79 114/161/79 117/164/79
f 41/48/12 43/60/12 37/178/12
