# Blender 4.0.2
# www.blender.org
mtllib tank_nato.mtl
o headModel
v -4.134590 -8.119737 -4.134590
v 4.134590 -8.119737 -4.134590
v 4.134590 -8.119737 4.333848
v -4.134590 -8.119737 4.333848
v -4.134590 -4.284033 -4.632734
v 4.134590 -4.284033 -4.632734
v 4.134590 -2.490717 4.433476
v -4.134590 -2.490717 4.433476
v -2.490717 -8.866952 -2.092202
v 2.490717 -8.866952 -2.092202
v 2.490717 -9.066211 2.142017
v -2.490717 -9.066211 2.142017
v -4.134590 -8.119737 -4.134590
v 4.134590 -8.119737 -4.134590
v 4.134590 -8.119737 4.483291
v -4.134590 -8.119737 4.483291
v -4.433476 -5.081063 -1.494430
v 0.448329 -5.081063 -1.494430
v 0.448329 -5.081063 4.483291
v -4.433476 -5.081063 4.483291
v -4.084776 -0.099629 -1.992574
v 0.099629 -0.099629 -1.992574
v 0.199257 -1.594059 4.483291
v -4.184404 -1.095915 4.483291
v -4.134590 -1.992574 -2.988860
v 4.134590 -1.992574 -2.988860
v 4.134590 -1.394801 0.498143
v -4.134590 -1.394801 0.498143
v -4.084776 0.199257 -3.586632
v 4.084776 0.199257 -3.586632
v 4.084776 -0.398515 -1.394801
v -4.084776 -0.398515 -1.394801
v -5.927907 -4.483291 -1.992573
v -3.736076 -4.981434 -2.490717
v -3.736076 -4.981434 1.494430
v -5.927907 -4.483291 0.996287
v -5.728649 -0.996287 -1.992574
v -3.736076 -0.498144 -2.490717
v -3.736076 -0.498143 1.494430
v -5.728649 -0.996287 0.996287
v 3.736076 -4.981434 -2.490717
v 5.927907 -4.483291 -1.992573
v 5.927907 -4.483291 0.996287
v 3.736076 -4.981434 1.494430
v 3.736076 -0.697401 -2.490717
v 5.728649 -0.996287 -1.992574
v 5.728649 -0.996287 0.996287
v 3.736076 -0.697401 1.494430
v -4.184404 -8.269180 -4.184404
v 4.184404 -8.269180 -4.184404
v 4.184404 -8.269180 4.582920
v -4.184404 -8.269180 4.582920
v -4.881805 -5.479578 -4.782176
v 4.881805 -5.479578 -4.782176
v 4.881805 -5.479578 5.280321
v -4.881805 -5.479578 5.280321
v -1.992574 -9.763611 -1.892944
v 1.992574 -9.763611 -1.892944
v 1.992574 -9.763611 2.590346
v -1.992574 -9.763611 2.590346
v -4.184404 -8.269180 -4.184404
v 4.184404 -8.269180 -4.184404
v 4.184404 -8.269180 4.582920
v -4.184404 -8.269180 4.582920
v -4.881805 -5.479578 -4.782176
v -2.988860 -5.479578 -4.782176
v -2.988860 -5.479578 -2.889232
v -4.881805 -5.479578 -2.889232
v -4.881805 -4.084776 -4.782177
v -2.988860 -4.682548 -4.782177
v -2.988860 -4.084776 -2.889232
v -4.881805 -4.084776 -2.889232
v -4.881805 -5.479578 -2.889232
v 4.881805 -5.479578 -2.889232
v 4.881805 -5.479578 -1.892945
v -4.881805 -5.479578 -1.892945
v -4.881805 -4.084776 -2.889232
v 4.881805 -4.084776 -2.889232
v 4.881805 -4.981434 -1.892945
v -4.881805 -4.981434 -1.892945
v -4.881805 -5.479578 -1.892945
v 4.881805 -5.479578 -1.892945
v 4.881805 -5.479578 0.597772
v -4.881805 -5.479578 0.597772
v -4.881805 -4.981434 -1.892945
v 4.881805 -4.981434 -1.892945
v 4.881805 -4.981434 0.597772
v -4.881805 -4.981434 0.597772
v -4.881805 -5.479578 0.597772
v 4.881805 -5.479578 0.597772
v 4.881805 -5.479578 1.594059
v -4.881805 -5.479578 1.594059
v -4.881805 -4.981434 0.597772
v 4.881805 -4.981434 0.597772
v 4.881805 -3.985147 1.594059
v -4.881805 -3.985147 1.594059
v -4.881805 -5.479578 1.594059
v 4.881805 -5.479578 1.594059
v 4.881805 -5.479578 2.092202
v -4.881805 -5.479578 2.092202
v -4.881805 -3.985147 1.594059
v 4.881805 -3.985147 1.594059
v 4.881805 -2.092202 2.092202
v -4.881805 -2.092202 2.092202
v -4.881805 -5.479578 2.092202
v 4.881805 -5.479578 2.092202
v 4.881805 -5.479578 5.280321
v -4.881805 -5.479578 5.280321
v -4.881805 -2.092202 2.092202
v 4.881805 -2.092202 2.092202
v 4.881805 -1.693687 5.081063
v -4.881805 -1.693687 5.081063
v -4.134590 -4.483291 -3.188118
v 4.134590 -4.483291 -3.188118
v 4.134590 -4.483291 -1.195544
v -4.134590 -4.483291 -1.195544
v -4.134590 -0.498144 -2.988860
v 4.134590 -0.498144 -2.988860
v 4.134590 -1.494430 -1.195544
v -4.134590 -1.494430 -1.195544
v 2.988860 -5.479578 -4.782176
v 4.881805 -5.479578 -4.782176
v 4.881805 -5.479578 -2.889232
v 2.988860 -5.479578 -2.889232
v 2.988860 -4.682548 -4.782177
v 4.881805 -4.084776 -4.782177
v 4.881805 -4.084776 -2.889232
v 2.988860 -4.084776 -2.889232
v -2.988860 -5.479578 -4.782176
v 0.000000 -5.479578 -4.782176
v 0.000000 -5.479578 -2.889232
v -2.988860 -5.479578 -2.889232
v -2.988860 -4.682548 -4.782177
v 0.000000 -5.180691 -4.782177
v 0.000000 -4.084776 -2.889232
v -2.988860 -4.084776 -2.889232
v 0.000000 -5.479578 -4.782176
v 2.988860 -5.479578 -4.782176
v 2.988860 -5.479578 -2.889232
v 0.000000 -5.479578 -2.889232
v 0.000000 -5.180691 -4.782177
v 2.988860 -4.682548 -4.782177
v 2.988860 -4.084776 -2.889232
v 0.000000 -4.084776 -2.889232
v -0.448329 -5.081063 -1.494430
v 4.433476 -5.081063 -1.494430
v 4.433476 -5.081063 4.483291
v -0.448329 -5.081063 4.483291
v -0.099629 -0.099629 -1.992574
v 4.084776 -0.099629 -1.992574
v 4.184404 -1.095915 4.483291
v -0.199257 -1.594059 4.483291
v -4.533105 -4.981434 -4.483291
v -3.736076 -4.981434 -4.483291
v -3.736076 -4.981434 -2.490717
v -4.533105 -4.981434 -2.490717
v -4.931620 -1.992574 -2.490717
v -3.736076 -1.992574 -2.490717
v -3.736076 -1.992574 -1.494430
v -4.931620 -1.992574 -1.494430
v 3.736076 -4.981434 -4.483291
v 4.533105 -4.981434 -4.483291
v 4.533105 -4.981434 -2.490717
v 3.736076 -4.981434 -2.490717
v 3.736076 -1.992574 -2.490717
v 4.931620 -1.992574 -2.490717
v 4.931620 -1.992574 -1.494430
v 3.736076 -1.992574 -1.494430
v -6.575493 -2.988860 -0.996287
v -5.479578 -2.988860 -0.996287
v -5.479578 -2.988860 0.000000
v -6.575493 -2.988860 0.000000
v -6.475864 -1.992574 -0.996287
v -5.479578 -1.992574 -0.996287
v -5.479578 -1.992574 0.000000
v -6.475864 -1.992574 0.000000
v -5.977721 -1.494430 -3.985147
v -5.379949 -1.494430 -3.985147
v -6.376235 -3.487004 0.597772
v -6.974008 -3.487004 0.597772
v -5.977721 -0.498144 -3.985147
v -5.379949 -0.498144 -3.985147
v -6.376235 -2.490717 0.996287
v -6.974008 -2.490717 0.996287
v -2.988860 -0.498144 -5.977721
v -2.391088 -0.697401 -4.981434
v -5.379949 -1.494430 -3.985147
v -5.977721 -1.494430 -3.985147
v -2.988860 0.498143 -5.977721
v -2.391088 0.298886 -4.981434
v -5.379949 -0.498144 -3.985147
v -5.977721 -0.498144 -3.985147
v -3.188118 -0.498144 -5.977721
v -0.199257 -0.996287 -5.977721
v -0.199257 -0.996287 -4.981434
v -3.188118 -0.498144 -4.981434
v -3.188118 0.498143 -5.977721
v -0.000000 0.697401 -5.977721
v -0.000000 0.697401 -4.981434
v -3.188118 0.498143 -4.981434
v -1.992574 -0.697401 -4.184404
v 1.992574 -0.697401 -4.184404
v 1.992574 -0.697401 -3.188118
v -1.992574 -0.697401 -3.188118
v -1.992574 0.298886 -4.184404
v 1.992574 0.298886 -4.184404
v 1.992574 0.298886 -3.188118
v -1.992574 0.298886 -3.188118
v -0.498143 -4.483291 2.092202
v 0.498143 -4.483291 2.092202
v 0.498143 -4.483291 5.379949
v -0.498143 -4.483291 5.379949
v -0.498143 -1.693688 2.092202
v 0.498143 -1.693688 2.092202
v 0.498143 -1.494430 5.180691
v -0.498143 -1.494430 5.180691
vn -0.0000 -1.0000 -0.0000
vn -0.0000 0.9810 -0.1940
vn -0.0000 -0.1288 -0.9917
vn -0.0000 -0.0177 0.9998
vn 1.0000 -0.0000 -0.0000
vn -1.0000 -0.0000 -0.0000
vn -0.0000 -0.9989 -0.0470
vn -0.0000 1.0000 -0.0000
vn -0.0000 -0.9391 -0.3436
vn -0.0000 -0.9271 0.3748
vn 0.4589 -0.8884 -0.0138
vn -0.4589 -0.8884 -0.0138
vn 0.0570 0.9804 0.1885
vn -0.0000 -0.0995 -0.9950
vn -0.0000 -0.0000 1.0000
vn 0.9975 0.0704 0.0005
vn -0.9978 0.0664 -0.0027
vn -0.0000 -0.9856 0.1690
vn -0.0000 0.9648 0.2631
vn -0.0000 -0.2631 -0.9648
vn -0.0000 0.8849 0.4657
vn 0.9995 0.0312 -0.0000
vn -0.9995 0.0312 -0.0000
vn -0.2216 -0.9751 -0.0000
vn -0.2425 0.9701 -0.0000
vn -0.2316 0.0058 -0.9728
vn -0.2316 0.0058 0.9728
vn -0.9984 0.0570 -0.0000
vn 0.2216 -0.9751 -0.0000
vn 0.1483 0.9889 -0.0000
vn 0.2313 0.0059 -0.9729
vn 0.2313 0.0059 0.9729
vn 0.9984 0.0570 -0.0000
vn -0.0000 -0.2095 -0.9778
vn -0.0000 -0.2425 0.9701
vn 0.9701 -0.2425 -0.0000
vn -0.9701 -0.2425 -0.0000
vn -0.0000 -0.8376 -0.5463
vn -0.0000 -0.8000 0.6000
vn 0.5633 -0.8262 -0.0000
vn -0.5633 -0.8262 -0.0000
vn 0.1541 0.9760 -0.1541
vn -0.0000 -0.0000 -1.0000
vn -0.0000 0.7433 0.6690
vn -0.0000 0.7071 -0.7071
vn -0.0000 0.2545 -0.9671
vn -0.0000 0.9912 -0.1322
vn -0.0000 0.0526 0.9986
vn -0.0000 0.8742 0.4856
vn -0.0000 0.0499 -0.9988
vn -0.1541 0.9760 -0.1541
vn 0.0758 0.9102 -0.4072
vn -0.0758 0.9102 -0.4072
vn -0.0570 0.9804 0.1885
vn 0.9978 0.0664 -0.0027
vn -0.9975 0.0704 0.0005
vn -0.0000 0.5547 -0.8321
vn -0.0000 -0.3162 0.9487
vn -0.9912 -0.1322 -0.0000
vn 0.9912 -0.1322 -0.0000
vn -0.9950 0.0995 -0.0000
vn -0.0000 -0.9171 -0.3987
vn -0.0000 0.9285 0.3714
vn -0.0000 -0.3714 0.9285
vn 0.9813 -0.0377 0.1887
vn -0.9813 0.0377 -0.1887
vn 0.1172 -0.9374 -0.3281
vn -0.1172 0.9374 0.3281
vn 0.8575 -0.0000 -0.5145
vn 0.3162 -0.0000 0.9487
vn -0.5547 -0.0000 -0.8321
vn -0.1644 -0.9864 -0.0000
vn -0.0624 0.9981 -0.0000
vn 0.9932 -0.1168 -0.0000
vn -0.0000 0.9979 -0.0644
vn -0.0000 0.0665 0.9978
vt 1.070312 0.859375
vt 1.132812 0.859375
vt 1.132812 0.984375
vt 1.070312 0.984375
vt 1.195312 0.859375
vt 1.195312 0.984375
vt 1.070312 0.812500
vt 1.132812 0.812500
vt 1.257812 0.859375
vt 1.195312 0.812500
vt 1.257812 0.812500
vt 1.007812 0.859375
vt 1.007812 0.812500
vt 1.382812 0.859375
vt 1.445312 0.859375
vt 1.445312 0.984375
vt 1.382812 0.984375
vt 1.507812 0.859375
vt 1.507812 0.984375
vt 1.382812 0.843750
vt 1.445312 0.843750
vt 1.570312 0.859375
vt 1.507812 0.843750
vt 1.570312 0.843750
vt 1.320312 0.859375
vt 1.320312 0.843750
vt 1.671875 0.906250
vt 1.703125 0.906250
vt 1.703125 0.984375
vt 1.671875 0.984375
vt 1.734375 0.906250
vt 1.734375 0.984375
vt 1.671875 0.859375
vt 1.703125 0.859375
vt 1.773438 0.906250
vt 1.742188 0.906250
vt 1.742188 0.859375
vt 1.773438 0.859375
vt 1.632812 0.906250
vt 1.632812 0.859375
vt 1.773438 0.953125
vt 1.835938 0.953125
vt 1.835938 0.984375
vt 1.773438 0.984375
vt 1.898438 0.953125
vt 1.898438 0.984375
vt 1.773438 0.937500
vt 1.835938 0.937500
vt 1.914062 0.953125
vt 1.851562 0.953125
vt 1.851562 0.937500
vt 1.914062 0.937500
vt 1.757812 0.953125
vt 1.757812 0.937500
vt 1.789062 0.796875
vt 1.804688 0.796875
vt 1.804688 0.859375
vt 1.789062 0.859375
vt 1.820312 0.796875
vt 1.820312 0.859375
vt 1.789062 0.734375
vt 1.804688 0.734375
vt 1.851562 0.796875
vt 1.835938 0.796875
vt 1.835938 0.734375
vt 1.851562 0.734375
vt 1.757812 0.796875
vt 1.757812 0.734375
vt 1.914062 0.796875
vt 1.929688 0.796875
vt 1.929688 0.859375
vt 1.914062 0.859375
vt 1.945312 0.796875
vt 1.945312 0.859375
vt 1.914062 0.734375
vt 1.929688 0.734375
vt 1.976562 0.796875
vt 1.960938 0.796875
vt 1.960938 0.734375
vt 1.976562 0.734375
vt 1.882812 0.796875
vt 1.882812 0.734375
vt 1.070312 0.609375
vt 1.132812 0.609375
vt 1.132812 0.734375
vt 1.070312 0.734375
vt 1.195312 0.609375
vt 1.195312 0.734375
vt 1.070312 0.562500
vt 1.132812 0.562500
vt 1.257812 0.609375
vt 1.195312 0.562500
vt 1.257812 0.562500
vt 1.007812 0.609375
vt 1.007812 0.562500
vt 1.382812 0.609375
vt 1.445312 0.609375
vt 1.445312 0.734375
vt 1.382812 0.734375
vt 1.507812 0.609375
vt 1.507812 0.734375
vt 1.382812 0.593750
vt 1.445312 0.593750
vt 1.570312 0.609375
vt 1.507812 0.593750
vt 1.570312 0.593750
vt 1.320312 0.609375
vt 1.320312 0.593750
vt 1.015625 0.968750
vt 1.023438 0.968750
vt 1.023438 0.984375
vt 1.015625 0.984375
vt 1.031250 0.968750
vt 1.031250 0.984375
vt 1.015625 0.921875
vt 1.023438 0.921875
vt 1.039062 0.968750
vt 1.031250 0.921875
vt 1.039062 0.921875
vt 1.007812 0.968750
vt 1.007812 0.921875
vt 1.578125 0.718750
vt 1.640625 0.718750
vt 1.640625 0.734375
vt 1.578125 0.734375
vt 1.703125 0.718750
vt 1.703125 0.734375
vt 1.578125 0.671875
vt 1.640625 0.671875
vt 1.710938 0.718750
vt 1.648438 0.718750
vt 1.648438 0.671875
vt 1.710938 0.671875
vt 1.570312 0.718750
vt 1.570312 0.671875
vt 1.585938 0.578125
vt 1.648438 0.578125
vt 1.648438 0.609375
vt 1.585938 0.609375
vt 1.710938 0.578125
vt 1.710938 0.609375
vt 1.585938 0.531250
vt 1.648438 0.531250
vt 1.726562 0.578125
vt 1.664062 0.578125
vt 1.664062 0.531250
vt 1.726562 0.531250
vt 1.570312 0.578125
vt 1.570312 0.531250
vt 1.765625 0.593750
vt 1.828125 0.593750
vt 1.828125 0.609375
vt 1.765625 0.609375
vt 1.890625 0.593750
vt 1.890625 0.609375
vt 1.765625 0.546875
vt 1.828125 0.546875
vt 1.898438 0.593750
vt 1.835938 0.593750
vt 1.835938 0.546875
vt 1.898438 0.546875
vt 1.757812 0.593750
vt 1.757812 0.546875
vt 1.015625 0.468750
vt 1.078125 0.468750
vt 1.078125 0.484375
vt 1.015625 0.484375
vt 1.140625 0.468750
vt 1.140625 0.484375
vt 1.015625 0.406250
vt 1.078125 0.406250
vt 1.148438 0.468750
vt 1.085938 0.468750
vt 1.085938 0.406250
vt 1.148438 0.406250
vt 1.007812 0.468750
vt 1.007812 0.406250
vt 1.218750 0.437500
vt 1.281250 0.437500
vt 1.281250 0.484375
vt 1.218750 0.484375
vt 1.343750 0.437500
vt 1.343750 0.484375
vt 1.218750 0.359375
vt 1.281250 0.359375
vt 1.367188 0.437500
vt 1.304688 0.437500
vt 1.304688 0.359375
vt 1.367188 0.359375
vt 1.195312 0.437500
vt 1.195312 0.359375
vt 1.398438 0.453125
vt 1.460938 0.453125
vt 1.460938 0.484375
vt 1.398438 0.484375
vt 1.523438 0.453125
vt 1.523438 0.484375
vt 1.398438 0.406250
vt 1.460938 0.406250
vt 1.539062 0.453125
vt 1.476562 0.453125
vt 1.476562 0.406250
vt 1.539062 0.406250
vt 1.382812 0.453125
vt 1.382812 0.406250
vt 1.265625 0.968750
vt 1.273438 0.968750
vt 1.273438 0.984375
vt 1.265625 0.984375
vt 1.281250 0.968750
vt 1.281250 0.984375
vt 1.265625 0.921875
vt 1.273438 0.921875
vt 1.289062 0.968750
vt 1.281250 0.921875
vt 1.289062 0.921875
vt 1.257812 0.968750
vt 1.257812 0.921875
vt 1.328125 0.968750
vt 1.343750 0.968750
vt 1.343750 0.984375
vt 1.328125 0.984375
vt 1.359375 0.968750
vt 1.359375 0.984375
vt 1.328125 0.921875
vt 1.343750 0.921875
vt 1.367188 0.968750
vt 1.351562 0.968750
vt 1.351562 0.921875
vt 1.367188 0.921875
vt 1.320312 0.968750
vt 1.320312 0.921875
vt 1.578125 0.968750
vt 1.593750 0.968750
vt 1.593750 0.984375
vt 1.578125 0.984375
vt 1.609375 0.968750
vt 1.609375 0.984375
vt 1.578125 0.921875
vt 1.593750 0.921875
vt 1.617188 0.968750
vt 1.601562 0.968750
vt 1.601562 0.921875
vt 1.617188 0.921875
vt 1.570312 0.968750
vt 1.570312 0.921875
vt 1.609375 0.406250
vt 1.640625 0.406250
vt 1.640625 0.484375
vt 1.609375 0.484375
vt 1.671875 0.406250
vt 1.671875 0.484375
vt 1.609375 0.359375
vt 1.640625 0.359375
vt 1.710938 0.406250
vt 1.679688 0.406250
vt 1.679688 0.359375
vt 1.710938 0.359375
vt 1.570312 0.406250
vt 1.570312 0.359375
vt 1.640625 0.968750
vt 1.648438 0.968750
vt 1.648438 0.984375
vt 1.640625 0.984375
vt 1.656250 0.968750
vt 1.656250 0.984375
vt 1.640625 0.921875
vt 1.648438 0.921875
vt 1.664062 0.968750
vt 1.656250 0.921875
vt 1.664062 0.921875
vt 1.632812 0.968750
vt 1.632812 0.921875
vt 1.953125 0.968750
vt 1.960938 0.968750
vt 1.960938 0.984375
vt 1.953125 0.984375
vt 1.968750 0.968750
vt 1.968750 0.984375
vt 1.953125 0.921875
vt 1.960938 0.921875
vt 1.976562 0.968750
vt 1.968750 0.921875
vt 1.976562 0.921875
vt 1.945312 0.968750
vt 1.945312 0.921875
vt 1.015625 0.718750
vt 1.023438 0.718750
vt 1.023438 0.734375
vt 1.015625 0.734375
vt 1.031250 0.718750
vt 1.031250 0.734375
vt 1.015625 0.703125
vt 1.023438 0.703125
vt 1.039062 0.718750
vt 1.031250 0.703125
vt 1.039062 0.703125
vt 1.007812 0.718750
vt 1.007812 0.703125
vt 1.296875 0.906250
vt 1.304688 0.906250
vt 1.304688 0.984375
vt 1.296875 0.984375
vt 1.312500 0.906250
vt 1.312500 0.984375
vt 1.296875 0.890625
vt 1.304688 0.890625
vt 1.351562 0.906250
vt 1.343750 0.906250
vt 1.343750 0.890625
vt 1.351562 0.890625
vt 1.257812 0.906250
vt 1.257812 0.890625
vt 1.585938 0.828125
vt 1.593750 0.828125
vt 1.593750 0.859375
vt 1.585938 0.859375
vt 1.601562 0.828125
vt 1.601562 0.859375
vt 1.585938 0.812500
vt 1.593750 0.812500
vt 1.617188 0.828125
vt 1.609375 0.828125
vt 1.609375 0.812500
vt 1.617188 0.812500
vt 1.570312 0.828125
vt 1.570312 0.812500
vt 1.265625 0.718750
vt 1.281250 0.718750
vt 1.281250 0.734375
vt 1.265625 0.734375
vt 1.296875 0.718750
vt 1.296875 0.734375
vt 1.265625 0.703125
vt 1.281250 0.703125
vt 1.304688 0.718750
vt 1.289062 0.718750
vt 1.289062 0.703125
vt 1.304688 0.703125
vt 1.257812 0.718750
vt 1.257812 0.703125
vt 1.703125 0.468750
vt 1.734375 0.468750
vt 1.734375 0.484375
vt 1.703125 0.484375
vt 1.765625 0.468750
vt 1.765625 0.484375
vt 1.703125 0.453125
vt 1.734375 0.453125
vt 1.773438 0.468750
vt 1.742188 0.468750
vt 1.742188 0.453125
vt 1.773438 0.453125
vt 1.695312 0.468750
vt 1.695312 0.453125
vt 1.781250 0.437500
vt 1.789062 0.437500
vt 1.789062 0.484375
vt 1.781250 0.484375
vt 1.796875 0.437500
vt 1.796875 0.484375
vt 1.781250 0.375000
vt 1.789062 0.375000
vt 1.820312 0.437500
vt 1.812500 0.437500
vt 1.812500 0.375000
vt 1.820312 0.375000
vt 1.757812 0.437500
vt 1.757812 0.375000
s 0
usemtl ModelMaterial.001
f 1/1/1 2/2/1 3/3/1 4/4/1
f 8/2/2 7/5/2 6/6/2 5/3/2
f 2/2/3 1/1/3 5/7/3 6/8/3
f 4/9/4 3/5/4 7/10/4 8/11/4
f 3/5/5 2/2/5 6/8/5 7/10/5
f 1/1/6 4/12/6 8/13/6 5/7/6
f 9/14/7 10/15/7 11/16/7 12/17/7
f 16/15/8 15/18/8 14/19/8 13/16/8
f 10/15/9 9/14/9 13/20/9 14/21/9
f 12/22/10 11/18/10 15/23/10 16/24/10
f 11/18/11 10/15/11 14/21/11 15/23/11
f 9/14/12 12/25/12 16/26/12 13/20/12
f 17/27/1 18/28/1 19/29/1 20/30/1
f 24/28/13 23/31/13 22/32/13 21/29/13
f 18/28/14 17/27/14 21/33/14 22/34/14
f 20/35/15 19/36/15 23/37/15 24/38/15
f 19/36/16 18/28/16 22/34/16 23/37/16
f 17/27/17 20/39/17 24/40/17 21/33/17
f 25/41/18 26/42/18 27/43/18 28/44/18
f 32/42/19 31/45/19 30/46/19 29/43/19
f 26/42/20 25/41/20 29/47/20 30/48/20
f 28/49/21 27/50/21 31/51/21 32/52/21
f 27/50/22 26/42/22 30/48/22 31/51/22
f 25/41/23 28/53/23 32/54/23 29/47/23
f 33/55/24 34/56/24 35/57/24 36/58/24
f 40/56/25 39/59/25 38/60/25 37/57/25
f 34/56/26 33/55/26 37/61/26 38/62/26
f 36/63/27 35/64/27 39/65/27 40/66/27
f 35/64/5 34/56/5 38/62/5 39/65/5
f 33/55/28 36/67/28 40/68/28 37/61/28
f 41/69/29 42/70/29 43/71/29 44/72/29
f 48/70/30 47/73/30 46/74/30 45/71/30
f 42/70/31 41/69/31 45/75/31 46/76/31
f 44/77/32 43/78/32 47/79/32 48/80/32
f 43/78/33 42/70/33 46/76/33 47/79/33
f 41/69/6 44/81/6 48/82/6 45/75/6
f 49/83/1 50/84/1 51/85/1 52/86/1
f 56/84/8 55/87/8 54/88/8 53/85/8
f 50/84/34 49/83/34 53/89/34 54/90/34
f 52/91/35 51/87/35 55/92/35 56/93/35
f 51/87/36 50/84/36 54/90/36 55/92/36
f 49/83/37 52/94/37 56/95/37 53/89/37
f 57/96/1 58/97/1 59/98/1 60/99/1
f 64/97/8 63/100/8 62/101/8 61/98/8
f 58/97/38 57/96/38 61/102/38 62/103/38
f 60/104/39 59/100/39 63/105/39 64/106/39
f 59/100/40 58/97/40 62/103/40 63/105/40
f 57/96/41 60/107/41 64/108/41 61/102/41
f 65/109/1 66/110/1 67/111/1 68/112/1
f 72/110/42 71/113/42 70/114/42 69/111/42
f 66/110/43 65/109/43 69/115/43 70/116/43
f 68/117/15 67/113/15 71/118/15 72/119/15
f 67/113/5 66/110/5 70/116/5 71/118/5
f 65/109/6 68/120/6 72/121/6 69/115/6
f 73/122/1 74/123/1 75/124/1 76/125/1
f 80/123/44 79/126/44 78/127/44 77/124/44
f 74/123/43 73/122/43 77/128/43 78/129/43
f 76/130/15 75/131/15 79/132/15 80/133/15
f 75/131/5 74/123/5 78/129/5 79/132/5
f 73/122/6 76/134/6 80/135/6 77/128/6
f 81/136/1 82/137/1 83/138/1 84/139/1
f 88/137/8 87/140/8 86/141/8 85/138/8
f 82/137/43 81/136/43 85/142/43 86/143/43
f 84/144/15 83/145/15 87/146/15 88/147/15
f 83/145/5 82/137/5 86/143/5 87/146/5
f 81/136/6 84/148/6 88/149/6 85/142/6
f 89/150/1 90/151/1 91/152/1 92/153/1
f 96/151/45 95/154/45 94/155/45 93/152/45
f 90/151/43 89/150/43 93/156/43 94/157/43
f 92/158/15 91/159/15 95/160/15 96/161/15
f 91/159/5 90/151/5 94/157/5 95/160/5
f 89/150/6 92/162/6 96/163/6 93/156/6
f 97/164/1 98/165/1 99/166/1 100/167/1
f 104/165/46 103/168/46 102/169/46 101/166/46
f 98/165/43 97/164/43 101/170/43 102/171/43
f 100/172/15 99/173/15 103/174/15 104/175/15
f 99/173/5 98/165/5 102/171/5 103/174/5
f 97/164/6 100/176/6 104/177/6 101/170/6
f 105/178/1 106/179/1 107/180/1 108/181/1
f 112/179/47 111/182/47 110/183/47 109/180/47
f 106/179/43 105/178/43 109/184/43 110/185/43
f 108/186/48 107/187/48 111/188/48 112/189/48
f 107/187/5 106/179/5 110/185/5 111/188/5
f 105/178/6 108/190/6 112/191/6 109/184/6
f 113/192/1 114/193/1 115/194/1 116/195/1
f 120/193/49 119/196/49 118/197/49 117/194/49
f 114/193/50 113/192/50 117/198/50 118/199/50
f 116/200/15 115/201/15 119/202/15 120/203/15
f 115/201/5 114/193/5 118/199/5 119/202/5
f 113/192/6 116/204/6 120/205/6 117/198/6
f 121/206/1 122/207/1 123/208/1 124/209/1
f 128/207/51 127/210/51 126/211/51 125/208/51
f 122/207/43 121/206/43 125/212/43 126/213/43
f 124/214/15 123/210/15 127/215/15 128/216/15
f 123/210/5 122/207/5 126/213/5 127/215/5
f 121/206/6 124/217/6 128/218/6 125/212/6
f 129/219/1 130/220/1 131/221/1 132/222/1
f 136/220/52 135/223/52 134/224/52 133/221/52
f 130/220/43 129/219/43 133/225/43 134/226/43
f 132/227/15 131/228/15 135/229/15 136/230/15
f 131/228/5 130/220/5 134/226/5 135/229/5
f 129/219/6 132/231/6 136/232/6 133/225/6
f 137/233/1 138/234/1 139/235/1 140/236/1
f 144/234/53 143/237/53 142/238/53 141/235/53
f 138/234/43 137/233/43 141/239/43 142/240/43
f 140/241/15 139/242/15 143/243/15 144/244/15
f 139/242/5 138/234/5 142/240/5 143/243/5
f 137/233/6 140/245/6 144/246/6 141/239/6
f 145/247/1 146/248/1 147/249/1 148/250/1
f 152/248/54 151/251/54 150/252/54 149/249/54
f 146/248/14 145/247/14 149/253/14 150/254/14
f 148/255/15 147/256/15 151/257/15 152/258/15
f 147/256/55 146/248/55 150/254/55 151/257/55
f 145/247/56 148/259/56 152/260/56 149/253/56
f 153/261/1 154/262/1 155/263/1 156/264/1
f 160/262/8 159/265/8 158/266/8 157/263/8
f 154/262/57 153/261/57 157/267/57 158/268/57
f 156/269/58 155/265/58 159/270/58 160/271/58
f 155/265/5 154/262/5 158/268/5 159/270/5
f 153/261/59 156/272/59 160/273/59 157/267/59
f 161/274/1 162/275/1 163/276/1 164/277/1
f 168/275/8 167/278/8 166/279/8 165/276/8
f 162/275/57 161/274/57 165/280/57 166/281/57
f 164/282/58 163/278/58 167/283/58 168/284/58
f 163/278/60 162/275/60 166/281/60 167/283/60
f 161/274/6 164/285/6 168/286/6 165/280/6
f 169/287/1 170/288/1 171/289/1 172/290/1
f 176/288/8 175/291/8 174/292/8 173/289/8
f 170/288/43 169/287/43 173/293/43 174/294/43
f 172/295/15 171/291/15 175/296/15 176/297/15
f 171/291/5 170/288/5 174/294/5 175/296/5
f 169/287/61 172/298/61 176/299/61 173/293/61
f 177/300/62 178/301/62 179/302/62 180/303/62
f 184/301/63 183/304/63 182/305/63 181/302/63
f 178/301/43 177/300/43 181/306/43 182/307/43
f 180/308/64 179/309/64 183/310/64 184/311/64
f 179/309/65 178/301/65 182/307/65 183/310/65
f 177/300/66 180/312/66 184/313/66 181/306/66
f 185/314/67 186/315/67 187/316/67 188/317/67
f 192/315/68 191/318/68 190/319/68 189/316/68
f 186/315/69 185/314/69 189/320/69 190/321/69
f 188/322/15 187/323/15 191/324/15 192/325/15
f 187/323/70 186/315/70 190/321/70 191/324/70
f 185/314/71 188/326/71 192/327/71 189/320/71
f 193/328/72 194/329/72 195/330/72 196/331/72
f 200/329/73 199/332/73 198/333/73 197/330/73
f 194/329/43 193/328/43 197/334/43 198/335/43
f 196/336/15 195/337/15 199/338/15 200/339/15
f 195/337/74 194/329/74 198/335/74 199/338/74
f 193/328/6 196/340/6 200/341/6 197/334/6
f 201/342/1 202/343/1 203/344/1 204/345/1
f 208/343/8 207/346/8 206/347/8 205/344/8
f 202/343/43 201/342/43 205/348/43 206/349/43
f 204/350/15 203/351/15 207/352/15 208/353/15
f 203/351/5 202/343/5 206/349/5 207/352/5
f 201/342/6 204/354/6 208/355/6 205/348/6
f 209/356/1 210/357/1 211/358/1 212/359/1
f 216/357/75 215/360/75 214/361/75 213/358/75
f 210/357/43 209/356/43 213/362/43 214/363/43
f 212/364/76 211/365/76 215/366/76 216/367/76
f 211/365/5 210/357/5 214/363/5 215/366/5
f 209/356/6 212/368/6 216/369/6 213/362/6
